HIERARCHY
ROOT pelvis
{
  OFFSET 0 100 0
  CHANNELS 6 Xposition Yposition Zposition Zrotation Xrotation Yrotation
  JOINT pelvis_right_femur
  {
    OFFSET -10.78128 -3.44521 -0.5502486
    CHANNELS 3 Zrotation Xrotation Yrotation
    JOINT right_femur_tibia
    {
      OFFSET -0.8047443 -44.0398 -0.1307829
      CHANNELS 3 Zrotation Xrotation Yrotation
      JOINT right_tibia_foot
      {
        OFFSET 3.006224 -47.83518 -5
        CHANNELS 3 Zrotation Xrotation Yrotation
        End Site
        {
          OFFSET 0 -5 15
        }
      }
    }
  }
  JOINT pelvis_left_femur
  {
    OFFSET 10.78128 -3.44521 -0.5502486
    CHANNELS 3 Zrotation Xrotation Yrotation
    JOINT left_femur_tibia
    {
      OFFSET 0.8047443 -44.0398 -0.1307829
      CHANNELS 3 Zrotation Xrotation Yrotation
      JOINT left_tibia_foot
      {
        OFFSET -4.370144 -48.10324 -4.275266
        CHANNELS 3 Zrotation Xrotation Yrotation
        End Site
        {
          OFFSET 0 -5 15
        }
      }
    }
  }
  JOINT pelvis_spine1
  {
    OFFSET 0 6.468898 -3.129235
    CHANNELS 3 Zrotation Xrotation Yrotation
    JOINT spine1
    {
      OFFSET 0 23.15396 4.99043
      CHANNELS 3 Zrotation Xrotation Yrotation
      JOINT spine2
      {
        OFFSET 0 20.79997 -5.064912
        CHANNELS 3 Zrotation Xrotation Yrotation
        JOINT neck
        {
          OFFSET 0 14.38658 9.616178
          CHANNELS 3 Zrotation Xrotation Yrotation
          End Site
          {
            OFFSET 0 20 0
          }
        }
      }
      JOINT right_manubrium
      {
        OFFSET -5.722621 16.35077 3.967754
        CHANNELS 3 Zrotation Xrotation Yrotation
        JOINT right_clavicle
        {
          OFFSET -13.16364 1.694482 -4.693211
          CHANNELS 3 Zrotation Xrotation Yrotation
          JOINT right_humerus
          {
            OFFSET -28.5034 -0.3100689 -2.792744
            CHANNELS 3 Zrotation Xrotation Yrotation
            JOINT right_radius
            {
              OFFSET -25.15693 0.02248979 -1.271978
              CHANNELS 3 Zrotation Xrotation Yrotation
              End Site
              {
                OFFSET -15 0 0
              }
            }
          }
        }
      }
      JOINT left_manubrium
      {
        OFFSET 5.722621 16.35077 3.967754
        CHANNELS 3 Zrotation Xrotation Yrotation
        JOINT left_clavicle
        {
          OFFSET 13.16364 1.694482 -4.693211
          CHANNELS 3 Zrotation Xrotation Yrotation
          JOINT left_humerus
          {
            OFFSET 29.39168 -1.063119 -2.237045
            CHANNELS 3 Zrotation Xrotation Yrotation
            JOINT left_radius
            {
              OFFSET 24.59957 -0.9528479 0.9047498
              CHANNELS 3 Zrotation Xrotation Yrotation
              End Site
              {
                OFFSET 15 -0 -0
              }
            }
          }
        }
      }
    }
  }
}
MOTION
Frames: 21
Frame Time: 0.0416666666667
972.917 101.5174 2690.421 3.158893 -4.640845 33.92539 5.499462 13.77598 -1.531193 -0 4.530724 -0 -9.414494 -15.76001 -1.051855 2.933448 -25.30406 -3.540632 -0 27.13064 -0 -5.945971 -6.173552 15.91267 -0.7697085 0.6256428 6.270848 0.5453597 9.069997 -4.126011 0.8527645 23.70372 4.622372 1.770853 -20.88183 5.505341 -0.860325 -22.56412 11.09025 83.84891 24.34322 -8.902448 -0 0 19.42911 -21.31312 11.89129 13.56269 4.481199 -18.6337 -3.450616 -95.07402 26.47736 26.62439 0 0 -12.2135 -1.693756 11.10016 14.94525
976.2411 100.0651 2694.893 2.090611 -4.114255 33.81333 5.642123 16.25001 -2.056388 -0 3.188415 -0 -8.698588 -17.34595 -0.2910622 4.113509 -27.20985 -2.76513 -0 14.89798 -0 -6.127035 -6.753493 16.97106 -0.5111433 0.359139 6.152394 0.5886639 8.464731 -4.017968 0.68062 23.32554 4.890848 1.646432 -21.42266 5.781989 -1.316257 -23.74249 10.49144 82.33614 24.2276 -6.633314 -0 0 21.82763 -22.46195 11.53838 14.90087 5.02948 -17.95837 -2.610695 -96.19575 26.29901 28.11864 0 0 -10.08618 -1.985494 10.34407 15.04869
979.8553 98.27934 2699.585 1.29397 -3.888456 33.56768 5.536212 18.46009 -2.31706 -0 3.15456 -0 -8.241693 -18.05326 0.186282 4.362931 -27.51052 -2.781869 -0 6.380187 -0 -6.307723 -7.08648 18.12636 -0.3071505 0.1214351 5.980402 0.6563695 7.867183 -3.836822 0.762477 23.20572 5.091204 1.527163 -21.82899 6.267014 -1.986616 -24.28896 9.736255 81.54233 23.91342 -4.829786 -0 0 23.09662 -23.2946 10.55565 15.86136 5.37571 -17.10844 -1.820885 -96.93216 25.97847 28.77709 0 0 -7.647037 -1.996714 9.701459 14.94034
983.7903 96.49197 2704.575 1.139591 -4.005747 33.16574 4.959856 20.6195 -2.275417 -0 5.18662 -0 -7.97941 -17.15055 0.4384422 3.4235 -26.50612 -3.686723 -0 2.753892 -0 -6.22435 -7.196941 19.32072 -0.3696659 -0.0633235 5.858928 0.6143371 7.432979 -3.444013 1.113744 23.39969 5.182362 1.467191 -21.86162 6.868278 -2.732483 -24.12072 8.997376 81.57623 23.40528 -3.537763 -0 0 23.09837 -23.74081 9.104624 16.36548 5.474859 -16.14458 -1.242668 -97.22211 25.42696 28.69063 0 0 -5.161764 -1.588436 9.389492 14.5179
988.0552 95.05229 2709.882 1.734824 -4.352879 32.70436 3.827143 22.51645 -1.961122 -0 9.809825 -0 -7.79029 -14.07841 0.5848281 1.467944 -24.50601 -5.230267 -0 3.628066 -0 -5.740331 -7.264404 20.33652 -0.8304479 -0.2390968 5.830825 0.3907978 7.289281 -2.857058 1.639653 23.81429 5.181482 1.521726 -21.504 7.442545 -3.297752 -23.35817 8.467638 82.31902 22.82375 -2.852784 -0 0 22.01132 -23.86174 7.564775 16.44532 5.345652 -15.24579 -0.9911655 -97.0955 24.6935 28.13184 0 0 -3.04717 -0.8023774 9.491502 13.81902
992.5876 94.23661 2715.429 2.895447 -4.79637 32.36167 2.314511 23.57512 -1.44659 -0 16.91306 -0 -7.637034 -8.929323 0.6612056 -0.9639663 -21.76646 -6.947141 -0 7.435144 -0 -4.913983 -7.500589 20.98888 -1.629292 -0.4372627 5.841003 0.007395739 7.504212 -2.246196 2.178423 24.28406 5.152531 1.71237 -20.92941 7.863097 -3.468084 -22.27484 8.274319 83.51183 22.32758 -2.872161 -0 0 20.22034 -23.79559 6.34026 16.18585 5.065 -14.65506 -1.110748 -96.6408 23.93574 27.3554 0 0 -1.666801 0.1887938 9.944289 12.97026
997.2384 94.16918 2721.049 4.251355 -5.286306 32.28799 0.8290692 23.20331 -0.8518601 -0 25.63521 -0 -7.574161 -2.682676 0.607777 -3.225239 -18.52812 -8.419034 -0 12.16914 -0 -3.936494 -7.994943 21.25559 -2.506893 -0.6068457 5.75519 -0.441418 8.045624 -1.814745 2.583253 24.68236 5.164023 2.000496 -20.33486 8.082094 -3.192622 -21.17016 8.429946 84.86392 21.99948 -3.544204 -0 0 18.1709 -23.65201 5.653327 15.69076 4.732334 -14.53648 -1.569655 -95.96298 23.29736 26.46679 0 0 -1.132946 1.227723 10.64366 12.06433
1001.825 94.80098 2726.542 5.441027 -5.839254 32.53427 -0.2303295 21.15298 -0.3280642 -0 34.66944 -0 -7.651033 3.234605 0.379579 -4.864572 -15.01915 -9.462685 -0 16.18801 -0 -2.995474 -8.678865 21.22126 -3.15871 -0.649015 5.447531 -0.8425628 8.781915 -1.676579 2.785272 24.97472 5.249218 2.302774 -19.82247 8.137185 -2.589108 -20.24334 8.847774 86.15278 21.80275 -4.650041 -0 0 16.2115 -23.46578 5.479624 15.07097 4.42958 -14.88694 -2.275301 -95.14113 22.81773 25.4341 0 0 -1.322681 2.276653 11.51995 11.08517
1006.201 95.95677 2731.74 6.266514 -6.458847 33.06187 -0.7035087 17.58527 0.007615178 -0 42.74746 -0 -7.871951 7.746305 0.01036218 -5.759042 -11.39906 -10.11285 -0 18.66601 -0 -2.187194 -9.444299 20.96589 -3.414665 -0.509183 4.881052 -1.115258 9.553196 -1.83231 2.794946 25.18614 5.404983 2.54401 -19.41622 8.106435 -1.858516 -19.55628 9.399773 87.28465 21.63512 -5.963327 -0 0 14.49855 -23.23325 5.647265 14.42036 4.208317 -15.59221 -3.113864 -94.21043 22.45368 24.18484 0 0 -2.070283 3.383988 12.5141 9.959358
1010.291 97.40787 2736.552 6.696257 -7.09461 33.787 -0.6694767 12.85105 0.1025275 -0 48.93445 -0 -8.235653 10.52506 -0.4054185 -6.021862 -7.730469 -10.4836 -0 19.49208 -0 -1.528823 -10.26248 20.52022 -3.278733 -0.2163815 4.110335 -1.225369 10.25336 -2.230627 2.654909 25.3376 5.622024 2.697726 -19.14152 8.057505 -1.187553 -19.09241 9.975722 88.28511 21.41388 -7.394703 -0 0 13.02105 -22.96541 5.97888 13.79888 4.096199 -16.55023 -3.995685 -93.17709 22.15427 22.69002 0 0 -3.330971 4.579683 13.5362 8.664791
1014.076 98.92283 2740.961 6.767812 -7.652704 34.61109 -0.3008715 7.265085 -0.05447174 -0 52.60605 -0 -8.759558 11.79943 -0.7561408 -5.840185 -4.020804 -10.66523 -0 18.89408 -0 -1.005743 -11.19696 19.87952 -2.854201 0.1475613 3.236878 -1.165374 10.85168 -2.829029 2.39792 25.41326 5.90431 2.785707 -19.06484 8.022143 -0.6917794 -18.82889 10.51354 89.22983 21.12397 -8.99076 -0 0 11.69593 -22.70406 6.366122 13.24563 4.102314 -17.73227 -4.874486 -92.04505 21.90138 20.99133 0 0 -5.199787 5.809254 14.47702 7.288337
1017.575 100.285 2745.008 6.511964 -8.016359 35.43037 0.2392898 1.044554 -0.4587034 -0 53.27724 -0 -9.447427 11.97514 -0.9546034 -5.386712 -0.2889514 -10.70327 -0 17.16484 -0 -0.5990813 -12.35851 19.03092 -2.274647 0.4926153 2.376112 -0.9290677 11.35559 -3.606894 2.041153 25.36665 6.258054 2.851945 -19.27386 7.995032 -0.4051102 -18.75933 10.99538 90.16848 20.81516 -10.84339 -0 0 10.45074 -22.50511 6.767344 12.80181 4.217551 -19.15163 -5.7339 -90.83599 21.71212 19.18793 0 0 -7.827072 6.91708 15.24765 6.028817
1020.827 101.294 2748.771 5.94247 -8.054624 36.13991 0.8143238 -5.617558 -1.099774 -0 50.49831 -0 -10.23352 11.39819 -0.9695607 -4.816106 3.388589 -10.61832 -0 14.60633 -0 -0.2979284 -13.86362 17.97428 -1.687048 0.7455304 1.648519 -0.5008312 11.75834 -4.542955 1.607047 25.14604 6.663649 2.934832 -19.83105 7.943951 -0.292933 -18.87047 11.42478 91.08047 20.57549 -13.0007 -0 0 9.26234 -22.41017 7.172831 12.51854 4.413237 -20.78834 -6.559608 -89.60202 21.63729 17.41373 0 0 -11.30047 7.64562 15.80711 5.185634
1023.888 101.772 2752.355 5.093106 -7.63048 36.64568 1.290009 -12.42197 -1.965049 -0 43.94371 -0 -10.9424 10.29454 -0.8415713 -4.295112 6.857041 -10.43031 -0 11.62413 -0 -0.1078641 -15.79279 16.73445 -1.261536 0.858475 1.174663 0.135466 12.00165 -5.579577 1.15058 24.72833 7.048218 3.044994 -20.72107 7.824239 -0.2692294 -19.09792 11.80157 91.86366 20.5022 -15.403 -0 0 8.160209 -22.41422 7.569675 12.43896 4.641856 -22.51327 -7.312311 -88.43208 21.75718 15.81064 0 0 -15.5072 7.671184 16.16975 5.107976
1026.828 101.5901 2755.876 4.073463 -6.635982 36.89184 1.516436 -18.83579 -3.042472 -0 33.7553 -0 -11.30564 8.814978 -0.6659913 -4.017136 9.887122 -10.17117 -0 8.863649 -0 -0.0479965 -18.11348 15.36399 -1.18048 0.808233 1.051482 0.9630697 11.97568 -6.590248 0.7739693 24.15944 7.279162 3.149692 -21.80151 7.602127 -0.2258662 -19.28727 12.10262 92.36405 20.66009 -17.84686 -0 0 7.198181 -22.43468 7.918508 12.54583 4.851113 -24.05561 -7.909049 -87.43737 22.12973 14.47544 0 0 -19.99651 6.773104 16.39049 5.995442
1029.736 100.7203 2759.459 3.098047 -5.080847 36.90189 1.36421 -24.06578 -4.311496 -0 21.0763 -0 -11.10753 7.13925 -0.5098667 -4.156157 12.23171 -9.865275 -0 7.221966 -0 -0.1161756 -20.55876 13.93765 -1.551908 0.5771538 1.303262 1.870214 11.5978 -7.384663 0.5991074 23.57683 7.218874 3.17953 -22.79554 7.296201 -0.1106687 -19.21654 12.27363 92.50071 21.00222 -20.03624 -0 0 6.379901 -22.3143 8.156308 12.67727 5.030637 -25.11428 -8.228608 -86.67415 22.63171 13.35503 0 0 -24.01097 5.237171 16.53619 7.451969
1032.723 99.29422 2763.256 2.412879 -3.215631 36.81553 0.8795899 -27.29758 -5.676378 -0 8.404832 -0 -10.4896 5.601142 -0.2966569 -4.737302 13.80941 -9.454796 -0 7.503282 -0 -0.2209281 -22.55419 12.5713 -2.22379 0.101239 1.833377 2.585146 10.98321 -7.809598 0.6684176 23.15019 6.874227 3.086476 -23.39541 7.020976 -0.06602066 -18.75442 12.24056 92.53408 21.28208 -21.82366 -0 0 5.540324 -21.9192 8.246511 12.48426 5.285532 -25.70703 -8.170376 -85.98301 22.75498 12.13439 0 0 -27.0358 4.292573 16.66618 8.066049
1035.93 97.62373 2767.494 2.079525 -1.575213 36.8681 0.5410596 -28.28469 -6.769352 0 -0.7318593 0 -10.15075 4.664051 0.07406549 -5.493156 15.07825 -8.761275 -0 9.799326 -0 -0.1953102 -23.38223 11.51679 -2.63616 -0.7675865 2.407443 2.729257 10.50863 -7.933534 0.8293435 22.91361 6.532695 2.922102 -23.47996 6.952184 -0.4657685 -18.07336 11.93011 93.22788 21.15962 -23.50735 -0 0 4.32311 -21.27086 8.26974 11.60805 5.816312 -26.42924 -7.736459 -84.96631 21.81462 10.39901 0 0 -29.73774 5.578792 16.65534 6.188119
1039.496 96.1796 2772.473 1.713281 -0.7847897 37.21701 1.318215 -27.93081 -6.617336 0 -2.713216 0 -10.79211 4.337084 0.1189125 -5.852081 17.15675 -7.858364 -0 13.73337 -0 -0.2082618 -22.51947 11.13288 -2.086313 -2.047454 2.64149 2.238831 10.35761 -8.093977 0.850804 22.65841 6.522218 2.766241 -23.32826 7.172973 -1.427113 -17.48511 11.26733 95.04136 20.80889 -25.44285 -0 0 2.686246 -20.2671 8.459094 10.07778 6.54445 -27.54079 -6.944075 -83.61529 20.21777 8.480508 0 0 -33.13842 8.584642 15.9332 2.859097
1043.399 95.53418 2778.242 0.6082059 -1.05583 37.66618 3.926478 -27.51819 -3.913033 -0 3.664763 -0 -11.8433 3.301024 -1.170319 -5.175184 19.85775 -7.758188 -0 20.6054 -0 -1.32234 -19.6091 11.20736 -0.5885434 -3.042098 2.225023 1.921621 10.00871 -8.535043 0.8376436 22.19862 6.617556 2.559724 -23.55671 7.580685 -1.862367 -16.82487 10.40868 96.42166 21.62056 -26.8693 -0 0 1.890147 -18.12524 9.00664 8.327637 6.639107 -27.3498 -5.724555 -83.14995 20.38411 8.107444 0 0 -34.4249 9.468129 14.47486 2.459745
1047.324 95.99243 2784.195 -0.8601976 -1.838618 37.79208 7.028756 -25.90642 0.261298 -0 12.28498 -0 -12.02344 0.2548289 -3.064106 -3.709408 19.21663 -9.009546 -0 32.63697 -0 -3.958645 -14.81557 10.8252 0.7549312 -2.762166 1.788664 2.423589 9.339282 -8.845758 1.036263 21.86594 6.395439 2.402391 -24.0993 7.841523 -0.5283612 -15.8974 10.11359 95.26565 24.38309 -26.49231 -0 0 3.191071 -15.11205 9.744351 6.910635 5.542464 -24.81425 -4.527082 -84.84755 23.04673 10.38301 0 0 -29.68384 7.006847 13.26433 5.556151
